<?xml version="1.0" encoding="utf-8"?>
<!-- Generator: Adobe Illustrator 22.1.0, SVG Export Plug-In . SVG Version: 6.00 Build 0)  -->
<svg version="1.1" id="Livello_1" xmlns="http://www.w3.org/2000/svg" xmlns:xlink="http://www.w3.org/1999/xlink" x="0px" y="0px"
	 viewBox="0 0 250 250" style="enable-background:new 0 0 250 250;" xml:space="preserve">
<style type="text/css">
	.st0{fill:#FFFFFF;}
</style>
<g>
	<g id="XMLID_1_">
		<g>
			<path class="st0" d="M165.4,53.8c-0.1-4.8-0.1-9.7,0-14.5c0-1.6-0.6-2.1-2.1-2.1c-25.6,0-51.1,0-76.7,0c-1.8,0-2.2,0.7-2.2,2.3
				c0.1,4.5,0.2,9,0,13.5c-0.1,2.3,0.5,3.1,3,3.1c12.5-0.1,25-0.1,37.6-0.1c12.7,0,25.4,0,38.1,0C164.7,56.1,165.5,55.8,165.4,53.8z
				 M65,232.8c-11.6,0.3-18.4-9.3-18.6-17.8c-0.2-14.6-1.2-29.1-1.9-43.7c-0.7-14.6-1.4-29.1-2.1-43.7c-0.7-14.7-1.4-29.5-2.1-44.2
				c0-0.9-0.2-1.9-0.3-2.8c-0.4-4.5-0.4-4.5-4.8-4.5c-3.4,0-6.7,0-10.1,0c-2.3,0-3.6-1-3.6-3.4c0-3.2-0.1-6.4,0.3-9.5
				c0.4-4,4.3-7.1,8.6-7.1c10.2,0,20.4,0,30.6,0c3.4,0,3.3,0,3.4-3.4c0.1-6.7-0.3-13.5,0.5-20.2c1-9.2,8.5-15.2,17.9-15.2
				c14.1,0,28.2,0,42.2,0c14,0,28,0,42,0c10.8,0,18.5,7.8,18.5,18.7c0,5.9,0.1,11.8,0,17.6c0,2,0.6,2.5,2.5,2.5
				c10.2-0.1,20.4-0.1,30.6,0c6.3,0,9.9,3.7,9.9,10c0,2,0,4,0,6c-0.1,3.3-0.8,4.1-4.2,4.1c-4.1,0-8.1,0.1-12.2,0
				c-1.5,0-2.1,0.4-2.2,2c-0.8,18.6-1.7,37.2-2.6,55.9c-0.6,13.5-1.4,27-2,40.6c-0.4,9.2-0.7,18.4-1.1,27.7
				c-0.2,5.2-0.4,10.3-1,15.5c-1,8.7-8.4,15-17.3,15c-33.2,0-66.3,0-99.5,0C79.2,232.7,72.1,232.6,65,232.8z"/>
		</g>
		<g>
		</g>
	</g>
</g>
</svg>
