<?xml version="1.0" encoding="utf-8"?>
<!-- Generator: Adobe Illustrator 22.1.0, SVG Export Plug-In . SVG Version: 6.00 Build 0)  -->
<svg version="1.1" id="Livello_1" xmlns="http://www.w3.org/2000/svg" xmlns:xlink="http://www.w3.org/1999/xlink" x="0px" y="0px"
     viewBox="0 0 250 250" style="enable-background:new 0 0 250 250;" xml:space="preserve">
<style type="text/css">
	.st0{fill:#CD6952;}
</style>
    <g>
	<path class="st0" d="M44.3,183.7c0-11.6,0-23.2,0-34.8c0-1.9-0.6-2.4-2.4-2.4c-3,0.1-6,0.1-9-0.1c-6.8-0.4-11.6-3.8-14-10.1
		c-2.4-6.3-1-12.1,3.7-16.9c9.5-9.7,19.2-19.2,28.8-28.8c23.6-23.6,47.3-47.2,71-70.8c4.8-4.8,8.9-4.8,13.6,0
		c33.2,33.1,66.3,66.3,99.5,99.4c4.4,4.4,6.1,9.7,4.4,15.8c-1.6,6-5.6,9.9-11.7,11.1c-3.3,0.7-6.8,0.4-10.3,0.5
		c-4.1,0.1-3.8-0.5-3.8,3.8c0,22.4,0,44.8,0,67.2c0,3.7-1.2,6.6-4.7,8.2c-1.1,0.5-2.5,0.7-3.7,0.7c-20.9,0-41.8,0-62.8,0.1
		c-1.7,0-2.1-0.6-2.1-2.2c0.1-16.6,0-33.2,0-49.8c0-2.9,0-2.9-2.9-2.9c-7.3,0-14.5,0-21.8,0c-2.6,0-2.7,0-2.6,2.6
		c0,16.5,0,32.9,0,49.4c0,2.9,0,2.9-2.9,2.9c-19.3,0-38.5,0-57.8,0c-3.6,0-6.4-1.3-7.9-4.6c-0.5-1.2-0.7-2.7-0.7-4.1
		C44.3,206.4,44.3,195,44.3,183.7z"/>
</g>
</svg>
