<svg id="Livello_1" data-name="Livello 1" xmlns="http://www.w3.org/2000/svg" viewBox="0 0 141.4 56.59999"><defs><style>.cls-1{fill:#fff;}</style></defs><title>banklogo</title><g id="Livello_2" data-name="Livello 2"><polygon class="cls-1" points="141.4 0 141.4 53.9 100.5 53.9 100.5 51.5 138.3 51.5 138.3 3 2.2 3 2.2 51.5 41.1 51.5 41.1 53.9 0 53.9 0 0 141.4 0"/><path class="cls-1" d="M87.6,150.8V149h2.7v1.7H87.6Zm.2-7.7v-1.8l2.4-.9v1.9Zm2.3,7.7V140.4h2v10.4Zm1.9,0V149h2.4v1.7H92Z" transform="translate(-42.8 -94.3)"/><path class="cls-1" d="M104.5,147a2.58285,2.58285,0,0,1-2.1-.9,3.61243,3.61243,0,0,1-.7-2.4,3.04036,3.04036,0,0,1,1-2.5,3.667,3.667,0,0,1,2.7-.9,3.47415,3.47415,0,0,1,2.7,1,4.06336,4.06336,0,0,1,1,2.7l-1.6,1.3h-.6a2.223,2.223,0,0,1-.8,1.3A3.16679,3.16679,0,0,1,104.5,147Zm-1.9,3.9-.1-1.8c3-.1,4.5-1.4,4.5-3.7v-.6l2.1-.7v.7a5.76019,5.76019,0,0,1-1.6,4.5A8.14123,8.14123,0,0,1,102.6,150.9Zm2.7-5.7a1.41421,1.41421,0,0,0,1.6-1.6,1.36586,1.36586,0,0,0-.4-1.1,1.60555,1.60555,0,0,0-2.8,1.2,1.36581,1.36581,0,0,0,.4,1.1A1.59392,1.59392,0,0,0,105.3,145.2Z" transform="translate(-42.8 -94.3)"/><path class="cls-1" d="M119.7,150.9a3.573,3.573,0,0,1-2.6-.9,3.24364,3.24364,0,0,1-.9-2.4h2a1.36584,1.36584,0,0,0,.4,1.1,1.594,1.594,0,0,0,1.2.4,1.656,1.656,0,0,0,1.2-.5,1.594,1.594,0,0,0,.4-1.2,1.36584,1.36584,0,0,0-.4-1.1,1.594,1.594,0,0,0-1.2-.4,3.287,3.287,0,0,0-1.7.4l.4-1.8a3.1778,3.1778,0,0,1,.9-.3,3.4016,3.4016,0,0,1,1-.1,2.7923,2.7923,0,0,1,2.2.9,3.28817,3.28817,0,0,1,.8,2.5,4.13615,4.13615,0,0,1-.5,1.9,3.03926,3.03926,0,0,1-1.3,1.2A4.69955,4.69955,0,0,1,119.7,150.9Zm-2.9-4.7.1-5.9h1.9l-.2,4.5-.5,1.4Zm1-4.1-.1-1.8h5.2v1.8Z" transform="translate(-42.8 -94.3)"/><path class="cls-1" d="M130.5,142.1v-1.8h7.9l-1.2,1.8Zm0,2.3v-3.8h1.9v3.8Zm2.6,6.4,3.2-10.4h2.1l-3.3,10.4Z" transform="translate(-42.8 -94.3)"/><path class="cls-1" d="M52.4,135.9V103.3h6v32.6Zm4-16v-2.2H66.6v2.2Zm1.7-1.5v-2.3h5.4a6.254,6.254,0,0,0,3.9-1,3.61292,3.61292,0,0,0,1.4-3,3.242,3.242,0,0,0-1.4-2.8,8.128,8.128,0,0,0-4.2-1H58.3l-.6-5.1h5.8q5.55,0,8.7,2.1a6.96645,6.96645,0,0,1,3.1,6,6.09314,6.09314,0,0,1-2.6,5.2c-1.7,1.2-4.2,1.8-7.3,1.8H58.1Zm0,17.5v-5.1H65a7.00362,7.00362,0,0,0,4.6-1.3,4.0606,4.0606,0,0,0,1.6-3.5,4.1362,4.1362,0,0,0-1.7-3.5,8.412,8.412,0,0,0-4.9-1.3H58.2l-.6-2.3h9.6c3.3,0,5.9.7,7.7,2.1a7.08778,7.08778,0,0,1,2.7,5.9,8.20372,8.20372,0,0,1-2.9,6.6c-1.9,1.6-4.7,2.3-8.2,2.3H58.1Z" transform="translate(-42.8 -94.3)"/><path class="cls-1" d="M117.3,135.9V103.3h5.8v32.6Zm14.8,0-8.3-25.2h-2.6v-7.4h4.6l8.3,25.2h1.5v7.4Zm2.8,0V103.3h5.8v32.6Z" transform="translate(-42.8 -94.3)"/><path class="cls-1" d="M149.9,135.9V103.3h6v32.6Zm3.5-10.4.5-5.5a14.05625,14.05625,0,0,0,6.4-1.4,12.71539,12.71539,0,0,0,4.5-3.8,16.898,16.898,0,0,0,2.6-5.4,21.54365,21.54365,0,0,0,.8-6.2h6.2a25.36668,25.36668,0,0,1-1.4,8.3,21.9588,21.9588,0,0,1-4.1,7.1,19.00048,19.00048,0,0,1-6.6,4.9A18.79343,18.79343,0,0,1,153.4,125.5Zm15.3,10.4-8-15,5.5-2.3,9.8,17.3Z" transform="translate(-42.8 -94.3)"/><polygon class="cls-1" points="38.5 20.6 69.3 20.6 53.9 9.2 38.5 20.6"/><path class="cls-1" d="M85.5,114.1v19.2H90V114.1Z" transform="translate(-42.8 -94.3)"/><path class="cls-1" d="M94.7,113.7V133h4.5V113.7Z" transform="translate(-42.8 -94.3)"/><path class="cls-1" d="M103.7,113.7V133h4.5V113.7Z" transform="translate(-42.8 -94.3)"/><rect class="cls-1" x="40.3" y="37.09999" width="27.3" height="4.7"/></g></svg>